/* XPM */
static char *result[] = {
/* columns rows colors chars-per-pixel */
"32 32 34 1 ",
"  c #000007",
". c #000008",
"X c #000009",
"o c #00000A",
"O c #00000B",
"+ c #00000D",
"@ c #00000E",
"# c #000010",
"$ c #000014",
"% c #301201",
"& c #151522",
"* c #161625",
"= c #191928",
"- c #19192B",
"; c #1B1B2B",
": c #1B1B2E",
"> c #1D1D32",
", c #202036",
"< c #450100",
"1 c #4B1E04",
"2 c #650100",
"3 c #6F0100",
"4 c #770004",
"5 c #5F2A0A",
"6 c #2F2F44",
"7 c #313147",
"8 c #35354D",
"9 c #3A3A54",
"0 c #860005",
"q c #890002",
"w c #970005",
"e c #A10005",
"r c #BC0406",
"t c #FF2914",
/* pixels */
"##########$$+++++##########$$###",
"98888,,$$99999989888>,9@@9999999",
",>,,>>,$$9,,,,,,>>,>>>,$@,,,999,",
",,,,,,,$$,,>>>>>>,>>,,;@o,,,99,,",
",,,,,,;$$;,>,,>1>:>;;,;o@,,,,,,,",
",,,,,,;$$;,,,,,1;=;;;;;o@,,,,,,,",
";;;;;;;$$;;;;;;1%;;;;;;@@,,,,,**",
"$OOOOO@@@@@###$51@@@$$@oo@@@OO$$",
"+#$$$$$$##O#$##551@oooo##@@#####",
"o988898888999965@59888899988888$",
"+9,,,>>>>>>,,995@5,,,988,,,,,,8#",
"+-,,,,>,,,>>>,95O51,,,,>>>>,,,8+",
"$&,,>>>,,,,,>,%5#;1,,,,,,,,,,,>+",
"#&,>>,,,,,;;;,1$#;5%,,,,,;;;;;,+",
"+&;;;;;;;;;;;15$#;51;;;;;;;;;;;+",
"O@@@$#OO@@@@@5#####5OOoo@@#$@OO ",
"$###OO$#O$$$15$@@@@5%##++@OOO###",
"9999999$@9881%888895199#o8888888",
",,,,--,$@wewq32,,>wewq32+9,,,788",
",-,,,-,@werqq32<,werqq32<9,,,>,,",
",,-,,-,wertrq322wertrq322<,,>,,,",
",,,-,--wetrq0322wetrq0322<,,>,,,",
",,--,,,errq44322errq44322<;;=;;;",
"@@@O###erq444322erq444322<XX@O@$",
"XO@@@@@3q33333223q3333322<####@@",
"O889888343222222343222222<88899$",
"O8998,,,2222222<.2222222<>>>>>,#",
"@8,,>,,,,<<<<<<Oo;<<<<<<,,,,,,,#",
"@,,,,,-->>,---,@+;,,,,,,,,,--,,#",
"@;,,,,,,,,,,,--O#;,,,,,,;;,,-,,#",
"@;;;&&&;;;;;;;&#$;;;;;;;;;;;;;;#",
"$$############$#$#++########++$#"
};
