/* XPM */
static char *result[] = {
/* columns rows colors chars-per-pixel */
"32 32 29 1 ",
"  c #000007",
". c #000009",
"X c #00000A",
"o c #00000B",
"O c #00000D",
"+ c #00000E",
"@ c #000010",
"# c #000014",
"$ c #151522",
"% c #161625",
"& c #191928",
"* c #19192B",
"= c #1B1B2B",
"- c #1D1D32",
"; c #211F30",
": c #202036",
"> c #313147",
", c #35354D",
"< c #3A3A54",
"1 c #A14744",
"2 c #B96E54",
"3 c #CF9E6E",
"4 c #F2BC7E",
"5 c #2FACDA",
"6 c #6CD9F1",
"7 c #E4C997",
"8 c #FBDFB1",
"9 c #ACF7FA",
"0 c white",
/* pixels */
"@@@@@@@@@@##OOOOO@@@@@@@@@@##@@@",
"<,,,,::##<<<<<<,<,,,-:<++<<<<<<<",
":-::--:##<::::::--:---:#+:::<<<:",
":::::::##::------:--::=+X:::<<::",
"::::::=##=:-;;;;;;;;;;;X+:::::::",
"::::::=##=;;99666666699;+:::::::",
"=======##;96666666666669;:::::%%",
"#ooooo++;9665;;;;;;;;;;;;+++oo##",
"O@#####;9665;213333737733;+@@@@@",
"X<,,,<,;965;21333333737733;,,,,#",
"O<:::-;6665;21333333373773;:::,@",
"O*::::;;;;;;21333333337377;:::,O",
"#$::-;23732;21333333333737;:::-O",
"@$:--;;;;;;;21333333333373;===:O",
"O$====;5555;21333333333337;====O",
"o+++#@;5665;21233311111332;#+oo ",
"#@@@oo;56665;212222222222;ooo@@@",
"<<<<<<<;56665;;;;;;;;;;;;,,,,,,,",
"::::**:#;556655555555555;<:::>,,",
":*:::*:++;;66666000096;;O<:::-::",
"::*::*:##:;66666666666;O@:::-:::",
":::*:**++;6666666009666;@:::-:::",
"::**:::#;66666666666666;;===&===",
"+++o@@@;666566666696666;5;..+o+#",
".o+++++;;;5;66666666666;4;@@@@++",
"o,,<,,,;84;6666666666666;;,,,<<#",
"o,<<,:::;;5666;;;;;;;666;-----:@",
"+,::-::::;5666;oX=:;5665;::::::@",
"+:::::**-;566;:+O=:;555;:::**::@",
"+=:::::::;565;*o@=::;;;:==::*::@",
"+===$$$==;55;=$@#==============@",
"##@@@@@@@@;;@@#@#@OO@@@@@@@@OO#@"
};
