/* XPM */
static char *result[] = {
/* columns rows colors chars-per-pixel */
"32 32 25 1 ",
"  c #000005",
". c #000007",
"X c #00000A",
"o c #00000B",
"O c #00000C",
"+ c #00000D",
"@ c #00000E",
"# c #000010",
"$ c #000011",
"% c #000012",
"& c #000014",
"* c #000019",
"= c #00001B",
"- c #00001E",
"; c #4C4C43",
": c #6F6F62",
"> c #7F7F70",
", c #888984",
"< c #9D9D95",
"1 c #A2A28F",
"2 c #AEAE9F",
"3 c #B4B4A6",
"4 c #BCBDB1",
"5 c #C8C9C1",
"6 c #E6E6DA",
/* pixels */
"X@.XX&&@&&&&@@X..X@X.X@@@&&&&&@X",
"@&66666666666666<<<<<<66666666&X",
"&655555664555566655555555556666@",
"&555555554455555555555555555555@",
"X555555555444444555555511555555@",
"X551555555555554555555551555555&",
"X551555555515454455555511155551&",
"@55515555411545544445555515555:&",
"@555555541144555555444555555551&",
"@555555423455555551555554444555&",
"X555543234555555511155555555555&",
"X1554244555555551:;,5555555551:@",
"@1111::11551111::;;111111111:::&",
"&-:>>:1::::1:::11:1:::::::;::;&@",
" &&&&&&@@X@@@@@X..@&@@&@&&@&&&. ",
"o@&&&&&&-&@&&&XXX&&@@&&&&&&&&&@X",
"@-666666666666-X@-666666666666-%",
"@66555555555566@&65555556665556=",
"%65555555555555@&55544455555555*",
"%55544444453345@&55115445555551O",
"=55444443222455%&55115433444441O",
"=55455333444455@&55511454455551O",
"*15555534433345@&55545555441551O",
"*15554411135445@&55555555551441O",
"*55444115345544@&11555555555555O",
"*54444554355544@&51555511555555O",
"*55553553455115@&51555551155555O",
"*55542235551115*X55555511155555O",
"*15554245551111&#55555111115551@",
"*11155111551111&&55111111111111@",
"$-111111111111&&@%111111111111&X",
"@@@-&&@@&&&@@XX@+O@@&&@@X@&&&&@X"
};
